HIERARCHY
ROOT Hips
{
 OFFSET 0.000000 0.000000 0.000000
 CHANNELS 6 Xposition Yposition Zposition Yrotation Xrotation Zrotation
 JOINT Chest
 {
  OFFSET 0.000000 14.374500 -0.011500
  CHANNELS 3 Yrotation Xrotation Zrotation
  JOINT Chest2
  {
   OFFSET 0.000000 9.203400 0.023400
   CHANNELS 3 Yrotation Xrotation Zrotation
   JOINT Chest3
   {
    OFFSET 0.000000 9.162700 0.000000
    CHANNELS 3 Yrotation Xrotation Zrotation
    JOINT Chest4
    {
     OFFSET 0.000000 9.153300 0.000000
     CHANNELS 3 Yrotation Xrotation Zrotation
     JOINT Neck
     {
      OFFSET 0.000000 13.353600 0.000000
      CHANNELS 3 Yrotation Xrotation Zrotation
      JOINT Head
      {
       OFFSET 0.000000 8.573800 0.049400
       CHANNELS 3 Yrotation Xrotation Zrotation
       End Site
       {
        OFFSET 0.000000 16.219200 0.026100
       }
      }
     }
     JOINT RightCollar
     {
      OFFSET -2.497100 8.876100 0.000000
      CHANNELS 3 Yrotation Xrotation Zrotation
      JOINT RightShoulder
      {
       OFFSET -12.289200 0.000000 0.000000
       CHANNELS 3 Yrotation Xrotation Zrotation
       JOINT RightElbow
       {
        OFFSET 0.000000 -28.194900 0.000000
        CHANNELS 3 Yrotation Xrotation Zrotation
        JOINT RightWrist
        {
         OFFSET 0.000000 -23.009700 0.007900
         CHANNELS 3 Yrotation Xrotation Zrotation
         End Site
         {
          OFFSET 0.000000 -17.151500 0.000000
         }
        }
       }
      }
     }
     JOINT LeftCollar
     {
      OFFSET 2.497100 8.876100 0.000000
      CHANNELS 3 Yrotation Xrotation Zrotation
      JOINT LeftShoulder
      {
       OFFSET 12.289200 0.000000 0.000000
       CHANNELS 3 Yrotation Xrotation Zrotation
       JOINT LeftElbow
       {
        OFFSET 0.000000 -28.194900 0.000000
        CHANNELS 3 Yrotation Xrotation Zrotation
        JOINT LeftWrist
        {
         OFFSET 0.000000 -23.009700 0.007900
         CHANNELS 3 Yrotation Xrotation Zrotation
         End Site
         {
          OFFSET 0.000000 -17.151500 0.000000
         }
        }
       }
      }
     }
    }
   }
  }
 }
 JOINT RightHip
 {
  OFFSET -11.777600 0.056700 0.005700
  CHANNELS 3 Yrotation Xrotation Zrotation
  JOINT RightKnee
  {
   OFFSET 0.000000 -39.966000 -0.004200
   CHANNELS 3 Yrotation Xrotation Zrotation
   JOINT RightAnkle
   {
    OFFSET 0.000000 -41.981900 0.027400
    CHANNELS 3 Yrotation Xrotation Zrotation
    JOINT RightToe
    {
     OFFSET 0.000000 -9.910600 16.950100
     CHANNELS 3 Yrotation Xrotation Zrotation
     End Site
     {
      OFFSET 0.000000 -1.461000 6.191600
     }
    }
   }
  }
 }
 JOINT LeftHip
 {
  OFFSET 11.777600 0.056700 0.005700
  CHANNELS 3 Yrotation Xrotation Zrotation
  JOINT LeftKnee
  {
   OFFSET 0.000000 -39.966000 -0.004200
   CHANNELS 3 Yrotation Xrotation Zrotation
   JOINT LeftAnkle
   {
    OFFSET 0.000000 -41.981900 0.027400
    CHANNELS 3 Yrotation Xrotation Zrotation
    JOINT LeftToe
    {
     OFFSET 0.000000 -9.910600 16.950100
     CHANNELS 3 Yrotation Xrotation Zrotation
     End Site
     {
      OFFSET 0.000000 -1.461000 6.191600
     }
    }
   }
  }
 }
}
MOTION
Frames: 6
Frame Time: 0.008333
-6.838518 130.451188 91.762809 176.174283 -50.528022 -3.697278 4.344000 29.194194 3.773903 0.641897 5.585702 0.533627 1.048929 8.723622 0.850475 3.241306 23.397270 2.779553 -0.326013 14.897575 -0.893116 -0.106061 -10.206748 -0.885652 3.580560 -7.812475 -0.337105 16.292344 -25.693871 -9.505111 41.575188 -41.639445 -27.602389 37.839350 32.637538 4.267179 -13.948140 -9.456059 0.172178 -14.289591 -30.221046 6.248213 -36.091665 -35.870952 18.567941 -23.309808 7.772378 7.646234 6.868249 -27.061606 1.377415 -80.015560 86.031687 -83.336655 3.277802 -26.150381 7.811432 -0.001554 -0.004074 -0.000909 -3.329590 -26.282792 -2.532926 144.503760 72.086091 155.208743 -3.656734 4.781747 -8.039857 -0.000486 -0.010948 -0.000284
-6.836483 130.450048 91.762589 176.158970 -50.509449 -3.691861 4.342604 29.181750 3.782193 0.643070 5.581050 0.532650 1.043620 8.719780 0.853974 3.238141 23.393860 2.778105 -0.308761 14.854357 -0.924419 -0.080969 -10.244312 -0.923451 3.563189 -7.773678 -0.324347 16.321228 -25.701228 -9.516929 41.530502 -41.672006 -27.640450 37.801503 32.624334 4.265321 -13.946592 -9.429015 0.154898 -14.256991 -30.190379 6.228574 -36.112325 -35.923597 18.631283 -23.290531 7.762891 7.650884 6.868008 -27.079525 1.365546 -79.986844 86.042687 -83.289553 3.286295 -26.149215 7.801967 0.003020 -0.000872 0.001766 -3.302463 -26.298065 -2.518672 144.577479 72.100757 155.292093 -3.649543 4.811320 -8.017564 0.004000 -0.010011 0.002339
-6.834629 130.451938 91.759963 176.149300 -50.507556 -3.688739 4.334335 29.187766 3.794049 0.648887 5.575136 0.526644 1.045151 8.716986 0.848773 3.235141 23.392044 2.778928 -0.284246 14.778978 -0.957182 -0.067771 -10.243293 -0.949378 3.551801 -7.754621 -0.315367 16.273735 -25.660752 -9.447780 41.597015 -41.712007 -27.753295 37.712952 32.621771 4.238447 -13.951329 -9.405310 0.152658 -14.218013 -30.157113 6.206830 -36.126425 -35.987761 18.687314 -23.307131 7.758478 7.636450 6.864099 -27.078936 1.359458 -79.918561 86.052079 -83.220830 3.297024 -26.145318 7.808935 0.001245 -0.002899 0.000728 -3.285276 -26.299858 -2.516141 144.599153 72.098428 155.316478 -3.642655 4.857562 -7.989179 0.004785 -0.000166 0.002798
-6.835542 130.452034 91.758516 176.151140 -50.497455 -3.683217 4.321612 29.182718 3.791119 0.650408 5.572326 0.522532 1.043615 8.714508 0.849432 3.230461 23.390446 2.778682 -0.268864 14.745124 -0.984211 -0.044931 -10.276669 -0.988546 3.549589 -7.742792 -0.315231 16.247149 -25.636775 -9.408646 41.598530 -41.757742 -27.814995 37.656786 32.619238 4.223081 -13.955618 -9.358845 0.155168 -14.172712 -30.146125 6.186634 -36.138718 -36.065680 18.738163 -23.297726 7.752299 7.649354 6.855530 -27.084529 1.339699 -79.861856 86.061270 -83.167014 3.307084 -26.144601 7.815102 0.000390 -0.004102 0.000228 -3.271786 -26.308402 -2.529955 144.682553 72.110873 155.399872 -3.606364 4.870094 -7.978967 0.001682 -0.005094 0.000983
-6.835863 130.452261 91.757108 176.142386 -50.489201 -3.671516 4.320419 29.176456 3.787348 0.648978 5.572332 0.522702 1.038649 8.713514 0.854639 3.224926 23.382336 2.791359 -0.252198 14.708003 -1.038091 -0.027898 -10.297792 -1.025539 3.552820 -7.724818 -0.333491 16.249897 -25.634013 -9.408184 41.535950 -41.810799 -27.825676 37.604962 32.621795 4.211848 -13.947756 -9.327937 0.133361 -14.130000 -30.115991 6.168779 -36.170926 -36.136440 18.784557 -23.266845 7.742394 7.677011 6.849280 -27.088985 1.321427 -79.815198 86.066865 -83.118844 3.318048 -26.144783 7.812600 0.000229 -0.003649 0.000134 -3.253842 -26.318866 -2.544232 144.712511 72.116411 155.430739 -3.587477 4.904740 -7.956651 -0.001262 -0.003738 -0.000738
-6.834278 130.454316 91.754531 176.128949 -50.490666 -3.663309 4.328000 29.178297 3.792809 0.646570 5.571111 0.527650 1.037355 8.710435 0.855933 3.223569 23.384726 2.783174 -0.246100 14.691453 -1.053009 0.001515 -10.343875 -1.085353 3.520577 -7.691743 -0.297944 16.266186 -25.622934 -9.406070 41.512851 -41.876738 -27.877445 37.558042 32.622886 4.205037 -13.947958 -9.318326 0.130594 -14.090114 -30.059240 6.156425 -36.171221 -36.255019 18.832505 -23.310419 7.760745 7.644244 6.840374 -27.085883 1.311286 -79.835156 86.064851 -83.127473 3.335010 -26.143329 7.796657 0.003578 -0.004645 0.002092 -3.238373 -26.323500 -2.549319 144.745725 72.121226 155.461115 -3.562433 4.971525 -7.929455 -0.001490 0.007764 -0.000871
